<svg width="32" height="32" viewBox="0 0 32 32" fill="none" xmlns="http://www.w3.org/2000/svg">
  <defs>
    <linearGradient id="gradient" x1="0%" y1="0%" x2="100%" y2="100%">
      <stop offset="0%" style="stop-color:#3b82f6;stop-opacity:1" />
      <stop offset="100%" style="stop-color:#6366f1;stop-opacity:1" />
    </linearGradient>
  </defs>
  
  <!-- Background circle -->
  <circle cx="16" cy="16" r="16" fill="url(#gradient)"/>
  
  <!-- Cloud shape -->
  <path d="M8 20c-1.1 0-2-.9-2-2 0-1.1.9-2 2-2 .2-1.7 1.6-3 3.4-3 1.2 0 2.3.6 2.9 1.5.3-.1.6-.2 1-.2 1.7 0 3 1.3 3 3s-1.3 3-3 3H8z" fill="white" opacity="0.9"/>
  
  <!-- Letter W -->
  <path d="M10.5 22l1.5-6h1l1.2 4.5L15.5 16h1l1.3 4.5L19 16h1l-1.5 6h-1.2L16 18l-1.3 4h-1.2z" fill="white" font-weight="bold"/>
</svg> 